<svg xmlns="http://www.w3.org/2000/svg" xmlns:xlink="http://www.w3.org/1999/xlink" width="500" zoomAndPan="magnify" viewBox="0 0 375 374.999991" height="500" preserveAspectRatio="xMidYMid meet" version="1.0"><defs><clipPath id="238d20c987"><path d="M 121 75.839844 L 371.269531 75.839844 L 371.269531 234 L 121 234 Z M 121 75.839844 " clip-rule="nonzero"/></clipPath><clipPath id="802ef63c98"><path d="M 156 239 L 213 239 L 213 295.589844 L 156 295.589844 Z M 156 239 " clip-rule="nonzero"/></clipPath><clipPath id="a2313c14c1"><path d="M 235 239 L 292 239 L 292 295.589844 L 235 295.589844 Z M 235 239 " clip-rule="nonzero"/></clipPath><clipPath id="b2bf042c02"><path d="M 3.769531 171 L 149 171 L 149 188 L 3.769531 188 Z M 3.769531 171 " clip-rule="nonzero"/></clipPath></defs><g clip-path="url(#238d20c987)"><path fill="#ff9e01" d="M 371.269531 118.800781 L 345.859375 224.183594 C 345.859375 224.6875 345.808594 225.183594 345.707031 225.675781 C 345.609375 226.164062 345.464844 226.644531 345.269531 227.105469 C 345.078125 227.570312 344.839844 228.007812 344.5625 228.425781 C 344.28125 228.839844 343.964844 229.226562 343.609375 229.582031 C 343.253906 229.9375 342.871094 230.253906 342.453125 230.53125 C 342.035156 230.808594 341.59375 231.046875 341.132812 231.238281 C 340.667969 231.429688 340.191406 231.578125 339.699219 231.675781 C 339.207031 231.773438 338.707031 231.824219 338.207031 231.828125 L 166.996094 233.066406 C 166.492188 233.0625 165.996094 233.015625 165.503906 232.914062 C 165.011719 232.816406 164.535156 232.671875 164.070312 232.476562 C 163.605469 232.285156 163.167969 232.050781 162.75 231.769531 C 162.332031 231.492188 161.945312 231.175781 161.589844 230.820312 C 161.238281 230.464844 160.917969 230.082031 160.640625 229.664062 C 160.359375 229.246094 160.125 228.808594 159.933594 228.34375 C 159.738281 227.882812 159.59375 227.40625 159.492188 226.914062 C 159.394531 226.421875 159.34375 225.925781 159.34375 225.425781 L 159.34375 118.789062 C 159.339844 118.578125 159.347656 118.371094 159.367188 118.164062 L 157.054688 97.53125 L 131.746094 97.53125 C 131.050781 97.503906 130.367188 97.410156 129.691406 97.25 C 129.015625 97.09375 128.363281 96.871094 127.730469 96.585938 C 127.097656 96.300781 126.496094 95.960938 125.929688 95.5625 C 125.359375 95.160156 124.835938 94.710938 124.355469 94.210938 C 123.875 93.710938 123.445312 93.171875 123.070312 92.589844 C 122.691406 92.007812 122.375 91.394531 122.117188 90.753906 C 121.855469 90.109375 121.660156 89.449219 121.527344 88.769531 C 121.398438 88.085938 121.332031 87.402344 121.332031 86.707031 C 121.332031 86.015625 121.398438 85.328125 121.527344 84.648438 C 121.660156 83.96875 121.855469 83.304688 122.117188 82.664062 C 122.375 82.019531 122.691406 81.40625 123.070312 80.824219 C 123.445312 80.242188 123.875 79.703125 124.355469 79.203125 C 124.835938 78.703125 125.359375 78.253906 125.929688 77.855469 C 126.496094 77.453125 127.097656 77.113281 127.730469 76.828125 C 128.363281 76.542969 129.015625 76.324219 129.691406 76.164062 C 130.367188 76.003906 131.050781 75.914062 131.746094 75.882812 L 176.421875 75.882812 C 176.425781 75.921875 176.425781 75.960938 176.421875 76 L 178.835938 97.542969 L 180.367188 111.15625 L 363.617188 111.15625 C 364.117188 111.15625 364.617188 111.207031 365.109375 111.308594 C 365.601562 111.40625 366.078125 111.550781 366.542969 111.746094 C 367.003906 111.9375 367.445312 112.171875 367.863281 112.453125 C 368.28125 112.730469 368.667969 113.046875 369.019531 113.402344 C 369.375 113.757812 369.695312 114.144531 369.972656 114.5625 C 370.25 114.976562 370.488281 115.417969 370.679688 115.878906 C 370.875 116.34375 371.019531 116.820312 371.117188 117.3125 C 371.21875 117.804688 371.265625 118.300781 371.269531 118.800781 Z M 371.269531 118.800781 " fill-opacity="1" fill-rule="nonzero"/></g><g clip-path="url(#802ef63c98)"><path fill="#ff7312" d="M 212.617188 267.71875 C 212.617188 268.632812 212.570312 269.542969 212.484375 270.449219 C 212.394531 271.355469 212.257812 272.257812 212.082031 273.152344 C 211.902344 274.046875 211.679688 274.929688 211.417969 275.804688 C 211.152344 276.675781 210.84375 277.535156 210.492188 278.375 C 210.144531 279.21875 209.753906 280.042969 209.324219 280.847656 C 208.894531 281.652344 208.425781 282.433594 207.917969 283.191406 C 207.410156 283.949219 206.867188 284.679688 206.285156 285.386719 C 205.707031 286.089844 205.09375 286.765625 204.449219 287.410156 C 203.804688 288.054688 203.128906 288.667969 202.421875 289.246094 C 201.714844 289.824219 200.984375 290.367188 200.222656 290.875 C 199.464844 291.378906 198.679688 291.847656 197.875 292.277344 C 197.070312 292.707031 196.246094 293.097656 195.402344 293.445312 C 194.558594 293.796875 193.699219 294.101562 192.824219 294.367188 C 191.953125 294.632812 191.066406 294.851562 190.171875 295.03125 C 189.273438 295.210938 188.371094 295.34375 187.464844 295.433594 C 186.554688 295.523438 185.644531 295.566406 184.730469 295.566406 C 183.816406 295.566406 182.90625 295.523438 181.996094 295.433594 C 181.085938 295.34375 180.183594 295.210938 179.289062 295.03125 C 178.394531 294.851562 177.507812 294.632812 176.636719 294.367188 C 175.761719 294.101562 174.902344 293.796875 174.058594 293.445312 C 173.214844 293.097656 172.390625 292.707031 171.585938 292.277344 C 170.777344 291.847656 169.996094 291.378906 169.238281 290.875 C 168.476562 290.367188 167.746094 289.824219 167.039062 289.246094 C 166.332031 288.667969 165.65625 288.054688 165.011719 287.410156 C 164.367188 286.765625 163.753906 286.089844 163.171875 285.386719 C 162.59375 284.679688 162.050781 283.949219 161.542969 283.191406 C 161.035156 282.433594 160.566406 281.652344 160.136719 280.847656 C 159.707031 280.042969 159.316406 279.21875 158.964844 278.375 C 158.617188 277.535156 158.308594 276.675781 158.042969 275.804688 C 157.777344 274.929688 157.558594 274.046875 157.378906 273.152344 C 157.199219 272.257812 157.066406 271.355469 156.976562 270.449219 C 156.886719 269.542969 156.84375 268.632812 156.84375 267.71875 C 156.84375 266.808594 156.886719 265.898438 156.976562 264.992188 C 157.066406 264.082031 157.199219 263.183594 157.378906 262.289062 C 157.558594 261.394531 157.777344 260.507812 158.042969 259.636719 C 158.308594 258.765625 158.617188 257.90625 158.964844 257.0625 C 159.316406 256.222656 159.707031 255.398438 160.136719 254.59375 C 160.566406 253.789062 161.035156 253.007812 161.542969 252.25 C 162.050781 251.492188 162.59375 250.761719 163.171875 250.054688 C 163.753906 249.351562 164.367188 248.675781 165.011719 248.03125 C 165.65625 247.386719 166.332031 246.773438 167.039062 246.195312 C 167.746094 245.617188 168.476562 245.074219 169.238281 244.566406 C 169.996094 244.058594 170.777344 243.59375 171.585938 243.164062 C 172.390625 242.730469 173.214844 242.34375 174.058594 241.992188 C 174.902344 241.644531 175.761719 241.339844 176.636719 241.074219 C 177.507812 240.808594 178.394531 240.585938 179.289062 240.410156 C 180.183594 240.230469 181.085938 240.097656 181.996094 240.007812 C 182.90625 239.917969 183.816406 239.875 184.730469 239.875 C 185.644531 239.875 186.554688 239.917969 187.464844 240.007812 C 188.371094 240.097656 189.273438 240.230469 190.171875 240.410156 C 191.066406 240.585938 191.953125 240.808594 192.824219 241.074219 C 193.699219 241.339844 194.558594 241.644531 195.402344 241.992188 C 196.246094 242.34375 197.070312 242.730469 197.875 243.164062 C 198.679688 243.59375 199.464844 244.058594 200.222656 244.566406 C 200.984375 245.074219 201.714844 245.617188 202.421875 246.195312 C 203.128906 246.773438 203.804688 247.386719 204.449219 248.03125 C 205.09375 248.675781 205.707031 249.351562 206.285156 250.054688 C 206.867188 250.761719 207.410156 251.492188 207.917969 252.25 C 208.425781 253.007812 208.894531 253.789062 209.324219 254.59375 C 209.753906 255.398438 210.144531 256.222656 210.492188 257.0625 C 210.84375 257.90625 211.152344 258.765625 211.417969 259.636719 C 211.679688 260.507812 211.902344 261.394531 212.082031 262.289062 C 212.257812 263.183594 212.394531 264.082031 212.484375 264.992188 C 212.570312 265.898438 212.617188 266.808594 212.617188 267.71875 Z M 212.617188 267.71875 " fill-opacity="1" fill-rule="nonzero"/></g><g clip-path="url(#a2313c14c1)"><path fill="#ff7312" d="M 291.324219 267.71875 C 291.324219 268.632812 291.277344 269.542969 291.1875 270.449219 C 291.097656 271.355469 290.964844 272.257812 290.785156 273.152344 C 290.609375 274.046875 290.386719 274.929688 290.121094 275.804688 C 289.855469 276.675781 289.550781 277.535156 289.199219 278.375 C 288.851562 279.21875 288.460938 280.042969 288.03125 280.847656 C 287.597656 281.652344 287.128906 282.433594 286.621094 283.191406 C 286.113281 283.949219 285.570312 284.679688 284.992188 285.386719 C 284.414062 286.089844 283.800781 286.765625 283.15625 287.410156 C 282.507812 288.054688 281.832031 288.667969 281.125 289.246094 C 280.421875 289.824219 279.6875 290.367188 278.929688 290.875 C 278.167969 291.378906 277.386719 291.847656 276.582031 292.277344 C 275.777344 292.707031 274.953125 293.097656 274.109375 293.445312 C 273.261719 293.796875 272.40625 294.101562 271.53125 294.367188 C 270.65625 294.632812 269.773438 294.851562 268.875 295.03125 C 267.980469 295.210938 267.078125 295.34375 266.167969 295.433594 C 265.261719 295.523438 264.347656 295.566406 263.4375 295.566406 C 262.523438 295.566406 261.609375 295.523438 260.703125 295.433594 C 259.792969 295.34375 258.890625 295.210938 257.996094 295.03125 C 257.097656 294.851562 256.214844 294.632812 255.339844 294.367188 C 254.464844 294.101562 253.609375 293.796875 252.765625 293.445312 C 251.921875 293.097656 251.09375 292.707031 250.289062 292.277344 C 249.484375 291.847656 248.703125 291.378906 247.941406 290.875 C 247.183594 290.367188 246.449219 289.824219 245.746094 289.246094 C 245.039062 288.667969 244.363281 288.054688 243.714844 287.410156 C 243.070312 286.765625 242.457031 286.089844 241.878906 285.386719 C 241.300781 284.679688 240.757812 283.949219 240.25 283.191406 C 239.742188 282.433594 239.273438 281.652344 238.839844 280.847656 C 238.410156 280.042969 238.019531 279.21875 237.671875 278.375 C 237.320312 277.535156 237.015625 276.675781 236.75 275.804688 C 236.484375 274.929688 236.261719 274.046875 236.085938 273.152344 C 235.90625 272.257812 235.773438 271.355469 235.683594 270.449219 C 235.59375 269.542969 235.550781 268.632812 235.550781 267.71875 C 235.550781 266.808594 235.59375 265.898438 235.683594 264.992188 C 235.773438 264.082031 235.90625 263.183594 236.085938 262.289062 C 236.261719 261.394531 236.484375 260.507812 236.75 259.636719 C 237.015625 258.765625 237.320312 257.90625 237.671875 257.0625 C 238.019531 256.222656 238.410156 255.398438 238.839844 254.59375 C 239.273438 253.789062 239.742188 253.007812 240.25 252.25 C 240.757812 251.492188 241.300781 250.761719 241.878906 250.054688 C 242.457031 249.351562 243.070312 248.675781 243.714844 248.03125 C 244.363281 247.386719 245.039062 246.773438 245.746094 246.195312 C 246.449219 245.617188 247.183594 245.074219 247.941406 244.566406 C 248.703125 244.058594 249.484375 243.59375 250.289062 243.164062 C 251.09375 242.730469 251.921875 242.34375 252.765625 241.992188 C 253.609375 241.644531 254.464844 241.339844 255.339844 241.074219 C 256.214844 240.808594 257.097656 240.585938 257.996094 240.410156 C 258.890625 240.230469 259.792969 240.097656 260.703125 240.007812 C 261.609375 239.917969 262.523438 239.875 263.4375 239.875 C 264.347656 239.875 265.261719 239.917969 266.167969 240.007812 C 267.078125 240.097656 267.980469 240.230469 268.875 240.410156 C 269.773438 240.585938 270.65625 240.808594 271.53125 241.074219 C 272.40625 241.339844 273.261719 241.644531 274.109375 241.992188 C 274.953125 242.34375 275.777344 242.730469 276.582031 243.164062 C 277.386719 243.59375 278.167969 244.058594 278.929688 244.566406 C 279.6875 245.074219 280.421875 245.617188 281.125 246.195312 C 281.832031 246.773438 282.507812 247.386719 283.15625 248.03125 C 283.800781 248.675781 284.414062 249.351562 284.992188 250.054688 C 285.570312 250.761719 286.113281 251.492188 286.621094 252.25 C 287.128906 253.007812 287.597656 253.789062 288.03125 254.59375 C 288.460938 255.398438 288.851562 256.222656 289.199219 257.0625 C 289.550781 257.90625 289.855469 258.765625 290.121094 259.636719 C 290.386719 260.507812 290.609375 261.394531 290.785156 262.289062 C 290.964844 263.183594 291.097656 264.082031 291.1875 264.992188 C 291.277344 265.898438 291.324219 266.808594 291.324219 267.71875 Z M 291.324219 267.71875 " fill-opacity="1" fill-rule="nonzero"/></g><path fill="#ff9e01" d="M 76.898438 120.4375 L 140.730469 120.4375 C 141.21875 120.4375 141.703125 120.484375 142.179688 120.582031 C 142.660156 120.675781 143.125 120.816406 143.574219 121.003906 C 144.027344 121.191406 144.453125 121.417969 144.859375 121.691406 C 145.265625 121.960938 145.644531 122.269531 145.988281 122.613281 C 146.332031 122.957031 146.640625 123.332031 146.914062 123.738281 C 147.183594 124.144531 147.414062 124.570312 147.601562 125.023438 C 147.785156 125.472656 147.929688 125.9375 148.023438 126.414062 C 148.117188 126.894531 148.167969 127.375 148.167969 127.863281 L 148.167969 129.71875 C 148.167969 130.207031 148.117188 130.691406 148.023438 131.167969 C 147.929688 131.648438 147.785156 132.113281 147.601562 132.5625 C 147.414062 133.011719 147.183594 133.441406 146.914062 133.847656 C 146.640625 134.25 146.332031 134.625 145.988281 134.972656 C 145.644531 135.316406 145.265625 135.625 144.859375 135.894531 C 144.453125 136.164062 144.027344 136.394531 143.574219 136.582031 C 143.125 136.765625 142.660156 136.90625 142.179688 137.003906 C 141.703125 137.097656 141.21875 137.144531 140.730469 137.144531 L 76.898438 137.144531 C 76.410156 137.144531 75.925781 137.097656 75.445312 137.003906 C 74.96875 136.90625 74.503906 136.765625 74.050781 136.582031 C 73.601562 136.394531 73.171875 136.164062 72.765625 135.894531 C 72.359375 135.625 71.984375 135.316406 71.636719 134.972656 C 71.292969 134.625 70.984375 134.25 70.714844 133.84375 C 70.441406 133.441406 70.214844 133.011719 70.027344 132.5625 C 69.839844 132.113281 69.699219 131.648438 69.601562 131.167969 C 69.507812 130.691406 69.460938 130.207031 69.460938 129.71875 L 69.460938 127.863281 C 69.460938 127.375 69.507812 126.894531 69.601562 126.414062 C 69.699219 125.9375 69.839844 125.472656 70.027344 125.023438 C 70.214844 124.570312 70.441406 124.144531 70.714844 123.738281 C 70.984375 123.332031 71.292969 122.957031 71.636719 122.613281 C 71.984375 122.269531 72.359375 121.960938 72.765625 121.691406 C 73.171875 121.417969 73.601562 121.191406 74.050781 121.003906 C 74.503906 120.816406 74.96875 120.675781 75.445312 120.582031 C 75.925781 120.484375 76.410156 120.4375 76.898438 120.4375 Z M 76.898438 120.4375 " fill-opacity="1" fill-rule="nonzero"/><path fill="#ff9e01" d="M 76.898438 224.402344 L 140.730469 224.402344 C 141.21875 224.402344 141.703125 224.449219 142.179688 224.542969 C 142.660156 224.640625 143.125 224.78125 143.574219 224.964844 C 144.027344 225.152344 144.453125 225.382812 144.859375 225.652344 C 145.265625 225.921875 145.644531 226.230469 145.988281 226.574219 C 146.332031 226.921875 146.640625 227.296875 146.914062 227.703125 C 147.183594 228.105469 147.414062 228.535156 147.601562 228.984375 C 147.785156 229.4375 147.929688 229.898438 148.023438 230.378906 C 148.117188 230.855469 148.167969 231.339844 148.167969 231.828125 L 148.167969 233.683594 C 148.167969 234.171875 148.117188 234.652344 148.023438 235.132812 C 147.929688 235.609375 147.785156 236.074219 147.601562 236.523438 C 147.414062 236.976562 147.183594 237.402344 146.914062 237.808594 C 146.640625 238.214844 146.332031 238.589844 145.988281 238.933594 C 145.644531 239.277344 145.265625 239.585938 144.859375 239.859375 C 144.453125 240.128906 144.027344 240.355469 143.574219 240.542969 C 143.125 240.730469 142.660156 240.871094 142.179688 240.964844 C 141.703125 241.0625 141.21875 241.109375 140.730469 241.109375 L 76.898438 241.109375 C 76.410156 241.109375 75.925781 241.0625 75.445312 240.964844 C 74.96875 240.871094 74.503906 240.730469 74.050781 240.542969 C 73.601562 240.355469 73.171875 240.128906 72.765625 239.859375 C 72.359375 239.585938 71.984375 239.277344 71.636719 238.933594 C 71.292969 238.589844 70.984375 238.214844 70.714844 237.808594 C 70.441406 237.402344 70.214844 236.976562 70.027344 236.523438 C 69.839844 236.074219 69.699219 235.609375 69.601562 235.132812 C 69.507812 234.652344 69.460938 234.171875 69.460938 233.683594 L 69.460938 231.828125 C 69.460938 231.339844 69.507812 230.855469 69.601562 230.378906 C 69.699219 229.898438 69.839844 229.4375 70.027344 228.984375 C 70.214844 228.535156 70.441406 228.105469 70.714844 227.703125 C 70.984375 227.296875 71.292969 226.921875 71.636719 226.574219 C 71.984375 226.230469 72.359375 225.921875 72.765625 225.652344 C 73.171875 225.382812 73.601562 225.152344 74.050781 224.964844 C 74.503906 224.78125 74.96875 224.640625 75.445312 224.542969 C 75.925781 224.449219 76.410156 224.402344 76.898438 224.402344 Z M 76.898438 224.402344 " fill-opacity="1" fill-rule="nonzero"/><g clip-path="url(#b2bf042c02)"><path fill="#ff9e01" d="M 12.136719 171.183594 L 139.800781 171.183594 C 140.347656 171.183594 140.894531 171.238281 141.433594 171.34375 C 141.972656 171.449219 142.492188 171.609375 143 171.820312 C 143.507812 172.027344 143.992188 172.285156 144.449219 172.589844 C 144.90625 172.894531 145.328125 173.242188 145.714844 173.628906 C 146.105469 174.015625 146.449219 174.4375 146.757812 174.894531 C 147.0625 175.351562 147.320312 175.832031 147.527344 176.339844 C 147.738281 176.847656 147.898438 177.367188 148.003906 177.90625 C 148.113281 178.445312 148.167969 178.988281 148.167969 179.535156 C 148.167969 180.085938 148.113281 180.628906 148.003906 181.167969 C 147.898438 181.703125 147.738281 182.226562 147.527344 182.734375 C 147.320312 183.242188 147.0625 183.722656 146.757812 184.179688 C 146.449219 184.632812 146.105469 185.054688 145.714844 185.445312 C 145.328125 185.832031 144.90625 186.179688 144.449219 186.484375 C 143.992188 186.789062 143.507812 187.042969 143 187.253906 C 142.492188 187.464844 141.972656 187.621094 141.433594 187.730469 C 140.894531 187.835938 140.347656 187.890625 139.800781 187.890625 L 12.136719 187.890625 C 11.585938 187.890625 11.042969 187.835938 10.503906 187.730469 C 9.964844 187.621094 9.441406 187.464844 8.933594 187.253906 C 8.425781 187.042969 7.945312 186.789062 7.488281 186.484375 C 7.03125 186.179688 6.609375 185.832031 6.21875 185.445312 C 5.832031 185.054688 5.484375 184.632812 5.179688 184.179688 C 4.875 183.722656 4.617188 183.242188 4.40625 182.734375 C 4.195312 182.226562 4.035156 181.703125 3.929688 181.167969 C 3.824219 180.628906 3.769531 180.085938 3.769531 179.535156 C 3.769531 178.988281 3.824219 178.445312 3.929688 177.90625 C 4.035156 177.367188 4.195312 176.847656 4.40625 176.339844 C 4.617188 175.832031 4.875 175.351562 5.179688 174.894531 C 5.484375 174.4375 5.832031 174.015625 6.21875 173.628906 C 6.609375 173.242188 7.03125 172.894531 7.488281 172.589844 C 7.945312 172.285156 8.425781 172.027344 8.933594 171.820312 C 9.441406 171.609375 9.964844 171.449219 10.503906 171.34375 C 11.042969 171.238281 11.585938 171.183594 12.136719 171.183594 Z M 12.136719 171.183594 " fill-opacity="1" fill-rule="nonzero"/></g></svg>